<svg width="580" height="520" viewBox="0 0 580 520" fill="none" xmlns="http://www.w3.org/2000/svg">
<g clip-path="url(#clip0_28_1152)">
<rect x="111" y="1" width="358" height="638" rx="39" fill="#F6F7FB"/>
<path d="M150 51.0001V53.0001H138L143.5 58.5001L142.08 59.9201L134.16 52.0001L142.08 44.0801L143.5 45.5001L138 51.0001H150Z" fill="#1C1C1F"/>
<path d="M438 48C439.061 48 440.078 48.4214 440.828 49.1716C441.579 49.9217 442 50.9391 442 52C442 53.0609 441.579 54.0783 440.828 54.8284C440.078 55.5786 439.061 56 438 56C436.939 56 435.922 55.5786 435.172 54.8284C434.421 54.0783 434 53.0609 434 52C434 50.9391 434.421 49.9217 435.172 49.1716C435.922 48.4214 436.939 48 438 48V48ZM438 50C437.47 50 436.961 50.2107 436.586 50.5858C436.211 50.9609 436 51.4696 436 52C436 52.5304 436.211 53.0391 436.586 53.4142C436.961 53.7893 437.47 54 438 54C438.53 54 439.039 53.7893 439.414 53.4142C439.789 53.0391 440 52.5304 440 52C440 51.4696 439.789 50.9609 439.414 50.5858C439.039 50.2107 438.53 50 438 50ZM436 62C435.75 62 435.54 61.82 435.5 61.58L435.13 58.93C434.5 58.68 433.96 58.34 433.44 57.94L430.95 58.95C430.73 59.03 430.46 58.95 430.34 58.73L428.34 55.27C428.21 55.05 428.27 54.78 428.46 54.63L430.57 52.97L430.5 52L430.57 51L428.46 49.37C428.27 49.22 428.21 48.95 428.34 48.73L430.34 45.27C430.46 45.05 430.73 44.96 430.95 45.05L433.44 46.05C433.96 45.66 434.5 45.32 435.13 45.07L435.5 42.42C435.54 42.18 435.75 42 436 42H440C440.25 42 440.46 42.18 440.5 42.42L440.87 45.07C441.5 45.32 442.04 45.66 442.56 46.05L445.05 45.05C445.27 44.96 445.54 45.05 445.66 45.27L447.66 48.73C447.79 48.95 447.73 49.22 447.54 49.37L445.43 51L445.5 52L445.43 53L447.54 54.63C447.73 54.78 447.79 55.05 447.66 55.27L445.66 58.73C445.54 58.95 445.27 59.04 445.05 58.95L442.56 57.95C442.04 58.34 441.5 58.68 440.87 58.93L440.5 61.58C440.46 61.82 440.25 62 440 62H436ZM437.25 44L436.88 46.61C435.68 46.86 434.62 47.5 433.85 48.39L431.44 47.35L430.69 48.65L432.8 50.2C432.4 51.37 432.4 52.64 432.8 53.8L430.68 55.36L431.43 56.66L433.86 55.62C434.63 56.5 435.68 57.14 436.87 57.38L437.24 60H438.76L439.13 57.39C440.32 57.14 441.37 56.5 442.14 55.62L444.57 56.66L445.32 55.36L443.2 53.81C443.6 52.64 443.6 51.37 443.2 50.2L445.31 48.65L444.56 47.35L442.15 48.39C441.38 47.5 440.32 46.86 439.12 46.62L438.75 44H437.25Z" fill="black"/>
<g clip-path="url(#clip1_28_1152)">
<g clip-path="url(#clip2_28_1152)">
<path d="M140.688 310.864H138.24V320H136.608V310.864H134.16V309.328H140.688V310.864ZM141.523 320V313.264H143.091V313.872C143.294 313.637 143.513 313.451 143.747 313.312C144.003 313.163 144.323 313.088 144.707 313.088C145.166 313.088 145.577 313.195 145.939 313.408L145.299 314.832C145.043 314.672 144.777 314.592 144.499 314.592C144.083 314.592 143.758 314.715 143.523 314.96C143.235 315.269 143.091 315.787 143.091 316.512V320H141.523ZM151.42 314.048V313.264H152.988V320H151.42V319.296C150.897 319.904 150.225 320.208 149.404 320.208C148.412 320.208 147.617 319.856 147.02 319.152C146.433 318.448 146.14 317.605 146.14 316.624C146.14 315.557 146.455 314.704 147.084 314.064C147.724 313.413 148.503 313.088 149.42 313.088C150.263 313.088 150.929 313.408 151.42 314.048ZM149.612 314.496C149.057 314.496 148.604 314.704 148.252 315.12C147.911 315.536 147.74 316.048 147.74 316.656C147.74 317.253 147.911 317.76 148.252 318.176C148.604 318.592 149.057 318.8 149.612 318.8C150.145 318.8 150.593 318.613 150.956 318.24C151.329 317.867 151.516 317.344 151.516 316.672C151.516 315.979 151.329 315.445 150.956 315.072C150.593 314.688 150.145 314.496 149.612 314.496ZM154.96 320V313.264H156.528V313.888C157.008 313.355 157.616 313.088 158.352 313.088C159.238 313.088 159.899 313.392 160.336 314C160.614 314.395 160.752 315.019 160.752 315.872V320H159.184V316.256C159.184 315.851 159.152 315.52 159.088 315.264C159.024 315.008 158.923 314.832 158.784 314.736C158.646 314.629 158.518 314.565 158.4 314.544C158.294 314.512 158.144 314.496 157.952 314.496C157.728 314.496 157.547 314.517 157.408 314.56C157.28 314.592 157.136 314.677 156.976 314.816C156.827 314.944 156.715 315.173 156.64 315.504C156.566 315.824 156.528 316.245 156.528 316.768V320H154.96ZM166.854 314.272L165.686 315.04C165.451 314.656 165.131 314.464 164.726 314.464C164.523 314.464 164.363 314.523 164.246 314.64C164.15 314.736 164.102 314.853 164.102 314.992C164.102 315.152 164.177 315.28 164.326 315.376C164.358 315.397 164.39 315.419 164.422 315.44C164.454 315.451 164.513 315.477 164.598 315.52C164.683 315.563 164.769 315.605 164.854 315.648L165.654 316.048C166.102 316.272 166.417 316.48 166.598 316.672C166.929 317.003 167.094 317.419 167.094 317.92C167.094 318.517 166.897 319.029 166.502 319.456C166.043 319.957 165.414 320.208 164.614 320.208C164.017 320.208 163.531 320.064 163.158 319.776C162.753 319.477 162.465 319.067 162.294 318.544L163.574 317.936C163.681 318.245 163.803 318.459 163.942 318.576C164.113 318.747 164.342 318.832 164.63 318.832C164.907 318.832 165.121 318.757 165.27 318.608C165.419 318.459 165.494 318.283 165.494 318.08C165.494 317.888 165.425 317.717 165.286 317.568C165.137 317.419 164.913 317.28 164.614 317.152L164.038 316.88C163.59 316.667 163.281 316.475 163.11 316.304C162.79 315.995 162.63 315.616 162.63 315.168C162.63 314.603 162.817 314.123 163.19 313.728C163.595 313.301 164.145 313.088 164.838 313.088C165.318 313.088 165.734 313.205 166.086 313.44C166.406 313.643 166.662 313.92 166.854 314.272ZM173.436 314.048V313.264H175.004V320H173.436V319.296C172.913 319.904 172.241 320.208 171.42 320.208C170.428 320.208 169.633 319.856 169.036 319.152C168.449 318.448 168.156 317.605 168.156 316.624C168.156 315.557 168.47 314.704 169.1 314.064C169.74 313.413 170.518 313.088 171.436 313.088C172.278 313.088 172.945 313.408 173.436 314.048ZM171.628 314.496C171.073 314.496 170.62 314.704 170.268 315.12C169.926 315.536 169.756 316.048 169.756 316.656C169.756 317.253 169.926 317.76 170.268 318.176C170.62 318.592 171.073 318.8 171.628 318.8C172.161 318.8 172.609 318.613 172.972 318.24C173.345 317.867 173.532 317.344 173.532 316.672C173.532 315.979 173.345 315.445 172.972 315.072C172.609 314.688 172.161 314.496 171.628 314.496ZM182.208 313.568V315.328C181.643 314.773 181.008 314.496 180.304 314.496C179.707 314.496 179.211 314.693 178.816 315.088C178.432 315.472 178.24 315.989 178.24 316.64C178.24 317.312 178.443 317.851 178.848 318.256C179.232 318.619 179.707 318.8 180.272 318.8C181.051 318.8 181.696 318.512 182.208 317.936V319.68C181.643 320.032 180.96 320.208 180.16 320.208C179.083 320.208 178.229 319.877 177.6 319.216C176.96 318.555 176.64 317.712 176.64 316.688C176.64 315.632 176.981 314.763 177.664 314.08C178.325 313.419 179.227 313.088 180.368 313.088C181.019 313.088 181.632 313.248 182.208 313.568ZM186.527 314.704H185.327V320H183.759V314.704H183.103V313.264H183.759V310.8H185.327V313.264H186.527V314.704ZM187.586 313.264H189.154V320H187.586V313.264ZM187.65 311.2C187.458 311.008 187.362 310.768 187.362 310.48C187.362 310.192 187.458 309.952 187.65 309.76C187.842 309.568 188.082 309.472 188.37 309.472C188.658 309.472 188.898 309.568 189.09 309.76C189.282 309.952 189.378 310.192 189.378 310.48C189.378 310.768 189.282 311.008 189.09 311.2C188.898 311.392 188.658 311.488 188.37 311.488C188.082 311.488 187.842 311.392 187.65 311.2ZM191.805 314.096C192.498 313.424 193.357 313.088 194.381 313.088C195.405 313.088 196.258 313.424 196.941 314.096C197.634 314.757 197.981 315.605 197.981 316.64C197.981 317.664 197.634 318.517 196.941 319.2C196.258 319.872 195.405 320.208 194.381 320.208C193.357 320.208 192.498 319.872 191.805 319.2C191.122 318.517 190.781 317.664 190.781 316.64C190.781 315.605 191.122 314.757 191.805 314.096ZM192.925 318.224C193.287 318.608 193.773 318.8 194.381 318.8C194.989 318.8 195.474 318.608 195.837 318.224C196.199 317.829 196.381 317.307 196.381 316.656C196.381 315.941 196.183 315.403 195.789 315.04C195.405 314.677 194.935 314.496 194.381 314.496C193.826 314.496 193.351 314.677 192.957 315.04C192.573 315.403 192.381 315.941 192.381 316.656C192.381 317.307 192.562 317.829 192.925 318.224ZM199.601 320V313.264H201.169V313.888C201.649 313.355 202.257 313.088 202.993 313.088C203.878 313.088 204.54 313.392 204.977 314C205.254 314.395 205.393 315.019 205.393 315.872V320H203.825V316.256C203.825 315.851 203.793 315.52 203.729 315.264C203.665 315.008 203.564 314.832 203.425 314.736C203.286 314.629 203.158 314.565 203.041 314.544C202.934 314.512 202.785 314.496 202.593 314.496C202.369 314.496 202.188 314.517 202.049 314.56C201.921 314.592 201.777 314.677 201.617 314.816C201.468 314.944 201.356 315.173 201.281 315.504C201.206 315.824 201.169 316.245 201.169 316.768V320H199.601ZM211.495 314.272L210.327 315.04C210.092 314.656 209.772 314.464 209.367 314.464C209.164 314.464 209.004 314.523 208.887 314.64C208.791 314.736 208.743 314.853 208.743 314.992C208.743 315.152 208.817 315.28 208.967 315.376C208.999 315.397 209.031 315.419 209.063 315.44C209.095 315.451 209.153 315.477 209.239 315.52C209.324 315.563 209.409 315.605 209.495 315.648L210.295 316.048C210.743 316.272 211.057 316.48 211.239 316.672C211.569 317.003 211.735 317.419 211.735 317.92C211.735 318.517 211.537 319.029 211.143 319.456C210.684 319.957 210.055 320.208 209.255 320.208C208.657 320.208 208.172 320.064 207.799 319.776C207.393 319.477 207.105 319.067 206.935 318.544L208.215 317.936C208.321 318.245 208.444 318.459 208.583 318.576C208.753 318.747 208.983 318.832 209.271 318.832C209.548 318.832 209.761 318.757 209.911 318.608C210.06 318.459 210.135 318.283 210.135 318.08C210.135 317.888 210.065 317.717 209.927 317.568C209.777 317.419 209.553 317.28 209.255 317.152L208.679 316.88C208.231 316.667 207.921 316.475 207.751 316.304C207.431 315.995 207.271 315.616 207.271 315.168C207.271 314.603 207.457 314.123 207.831 313.728C208.236 313.301 208.785 313.088 209.479 313.088C209.959 313.088 210.375 313.205 210.727 313.44C211.047 313.643 211.303 313.92 211.495 314.272Z" fill="#B3B3BA"/>
<rect width="328" height="142" transform="translate(126 334)" fill="white"/>
<path d="M145.724 363V354.642H144.156L144.702 353.662H146.76V363H145.724ZM155.438 361.768C154.794 362.701 153.996 363.168 153.044 363.168C152.092 363.168 151.294 362.701 150.65 361.768C150.025 360.863 149.712 359.719 149.712 358.338C149.712 356.957 150.025 355.813 150.65 354.908C151.294 353.975 152.092 353.508 153.044 353.508C153.996 353.508 154.794 353.975 155.438 354.908C156.064 355.813 156.376 356.957 156.376 358.338C156.376 359.719 156.064 360.863 155.438 361.768ZM154.654 355.496C154.225 354.805 153.688 354.46 153.044 354.46C152.4 354.46 151.864 354.805 151.434 355.496C150.977 356.224 150.748 357.171 150.748 358.338C150.748 359.505 150.977 360.452 151.434 361.18C151.864 361.871 152.4 362.216 153.044 362.216C153.688 362.216 154.225 361.871 154.654 361.18C155.112 360.452 155.34 359.505 155.34 358.338C155.34 357.171 155.112 356.224 154.654 355.496ZM157.025 365.38L164.221 352.374L165.033 352.794L157.837 365.772L157.025 365.38ZM171.681 361.768C171.037 362.701 170.239 363.168 169.287 363.168C168.335 363.168 167.537 362.701 166.893 361.768C166.267 360.863 165.955 359.719 165.955 358.338C165.955 356.957 166.267 355.813 166.893 354.908C167.537 353.975 168.335 353.508 169.287 353.508C170.239 353.508 171.037 353.975 171.681 354.908C172.306 355.813 172.619 356.957 172.619 358.338C172.619 359.719 172.306 360.863 171.681 361.768ZM170.897 355.496C170.467 354.805 169.931 354.46 169.287 354.46C168.643 354.46 168.106 354.805 167.677 355.496C167.219 356.224 166.991 357.171 166.991 358.338C166.991 359.505 167.219 360.452 167.677 361.18C168.106 361.871 168.643 362.216 169.287 362.216C169.931 362.216 170.467 361.871 170.897 361.18C171.354 360.452 171.583 359.505 171.583 358.338C171.583 357.171 171.354 356.224 170.897 355.496ZM175.597 363V354.642H174.029L174.575 353.662H176.633V363H175.597ZM179.83 365.38L187.026 352.374L187.838 352.794L180.642 365.772L179.83 365.38ZM194.849 363H188.815L192.217 359.066C192.796 358.385 193.16 357.932 193.309 357.708C193.655 357.213 193.827 356.737 193.827 356.28C193.827 355.748 193.655 355.314 193.309 354.978C192.964 354.633 192.516 354.46 191.965 354.46C191.293 354.46 190.775 354.735 190.411 355.286C190.215 355.585 190.113 355.953 190.103 356.392H189.067C189.105 355.599 189.338 354.955 189.767 354.46C190.327 353.825 191.065 353.508 191.979 353.508C192.81 353.508 193.496 353.774 194.037 354.306C194.588 354.829 194.863 355.491 194.863 356.294C194.863 356.919 194.616 357.587 194.121 358.296C193.869 358.641 193.445 359.159 192.847 359.85L190.901 362.048H194.849V363ZM202.087 361.768C201.443 362.701 200.645 363.168 199.693 363.168C198.741 363.168 197.943 362.701 197.299 361.768C196.673 360.863 196.361 359.719 196.361 358.338C196.361 356.957 196.673 355.813 197.299 354.908C197.943 353.975 198.741 353.508 199.693 353.508C200.645 353.508 201.443 353.975 202.087 354.908C202.712 355.813 203.025 356.957 203.025 358.338C203.025 359.719 202.712 360.863 202.087 361.768ZM201.303 355.496C200.873 354.805 200.337 354.46 199.693 354.46C199.049 354.46 198.512 354.805 198.083 355.496C197.625 356.224 197.397 357.171 197.397 358.338C197.397 359.505 197.625 360.452 198.083 361.18C198.512 361.871 199.049 362.216 199.693 362.216C200.337 362.216 200.873 361.871 201.303 361.18C201.76 360.452 201.989 359.505 201.989 358.338C201.989 357.171 201.76 356.224 201.303 355.496ZM210.408 363H204.374L207.776 359.066C208.354 358.385 208.718 357.932 208.868 357.708C209.213 357.213 209.386 356.737 209.386 356.28C209.386 355.748 209.213 355.314 208.868 354.978C208.522 354.633 208.074 354.46 207.524 354.46C206.852 354.46 206.334 354.735 205.97 355.286C205.774 355.585 205.671 355.953 205.662 356.392H204.626C204.663 355.599 204.896 354.955 205.326 354.46C205.886 353.825 206.623 353.508 207.538 353.508C208.368 353.508 209.054 353.774 209.596 354.306C210.146 354.829 210.422 355.491 210.422 356.294C210.422 356.919 210.174 357.587 209.68 358.296C209.428 358.641 209.003 359.159 208.406 359.85L206.46 362.048H210.408V363ZM217.832 363H211.798L215.2 359.066C215.778 358.385 216.142 357.932 216.292 357.708C216.637 357.213 216.81 356.737 216.81 356.28C216.81 355.748 216.637 355.314 216.292 354.978C215.946 354.633 215.498 354.46 214.948 354.46C214.276 354.46 213.758 354.735 213.394 355.286C213.198 355.585 213.095 355.953 213.086 356.392H212.05C212.087 355.599 212.32 354.955 212.75 354.46C213.31 353.825 214.047 353.508 214.962 353.508C215.792 353.508 216.478 353.774 217.02 354.306C217.57 354.829 217.846 355.491 217.846 356.294C217.846 356.919 217.598 357.587 217.104 358.296C216.852 358.641 216.427 359.159 215.83 359.85L213.884 362.048H217.832V363Z" fill="#84848A"/>
<rect x="145.5" y="389.5" width="49" height="49" rx="24.5" fill="#E0E4FF"/>
<path d="M156 407.875C156 406.909 156.784 406.125 157.75 406.125H178.75C179.716 406.125 180.5 406.909 180.5 407.875V425.375C180.5 426.341 179.716 427.125 178.75 427.125H157.75C156.784 427.125 156 426.341 156 425.375V407.875Z" fill="#0C29FF"/>
<path fill-rule="evenodd" clip-rule="evenodd" d="M178.75 407.875H157.75V425.375H178.75V407.875ZM157.75 406.125C156.784 406.125 156 406.909 156 407.875V425.375C156 426.341 156.784 427.125 157.75 427.125H178.75C179.716 427.125 180.5 426.341 180.5 425.375V407.875C180.5 406.909 179.716 406.125 178.75 406.125H157.75Z" fill="black"/>
<path d="M159.5 407.875C159.5 406.909 160.284 406.125 161.25 406.125H182.25C183.216 406.125 184 406.909 184 407.875V425.375C184 426.341 183.216 427.125 182.25 427.125H161.25C160.284 427.125 159.5 426.341 159.5 425.375V407.875Z" fill="#7081FF"/>
<path fill-rule="evenodd" clip-rule="evenodd" d="M182.25 407.875H161.25V425.375H182.25V407.875ZM161.25 406.125C160.284 406.125 159.5 406.909 159.5 407.875V425.375C159.5 426.341 160.284 427.125 161.25 427.125H182.25C183.216 427.125 184 426.341 184 425.375V407.875C184 406.909 183.216 406.125 182.25 406.125H161.25Z" fill="black"/>
<path d="M163.875 410.5H179.625V422.75H163.875V410.5Z" fill="#7081FF"/>
<path d="M163 414.875C163 413.909 163.784 413.125 164.75 413.125V413.125C165.716 413.125 166.5 413.909 166.5 414.875V418.375C166.5 419.341 165.716 420.125 164.75 420.125V420.125C163.784 420.125 163 419.341 163 418.375V414.875Z" fill="#C4C4C4"/>
<path fill-rule="evenodd" clip-rule="evenodd" d="M164.75 413.125C163.784 413.125 163 413.909 163 414.875V418.375C163 419.341 163.784 420.125 164.75 420.125C165.716 420.125 166.5 419.341 166.5 418.375V414.875C166.5 413.909 165.716 413.125 164.75 413.125Z" fill="black"/>
<path fill-rule="evenodd" clip-rule="evenodd" d="M175.25 418.375V414.875H177V418.375H175.25Z" fill="black"/>
<path d="M174.375 403.5C174.375 405.916 172.416 407.875 170 407.875C167.584 407.875 165.625 405.916 165.625 403.5C165.625 401.084 167.584 399.125 170 399.125C172.416 399.125 174.375 401.084 174.375 403.5Z" fill="#FFE066"/>
<path fill-rule="evenodd" clip-rule="evenodd" d="M170 406.125C171.45 406.125 172.625 404.95 172.625 403.5C172.625 402.05 171.45 400.875 170 400.875C168.55 400.875 167.375 402.05 167.375 403.5C167.375 404.95 168.55 406.125 170 406.125ZM170 407.875C172.416 407.875 174.375 405.916 174.375 403.5C174.375 401.084 172.416 399.125 170 399.125C167.584 399.125 165.625 401.084 165.625 403.5C165.625 405.916 167.584 407.875 170 407.875Z" fill="black"/>
<path fill-rule="evenodd" clip-rule="evenodd" d="M177.875 412.25H165.625V421H177.875V412.25ZM163.875 410.5V422.75H179.625V410.5H163.875Z" fill="black"/>
<path d="M206.112 387.662H207.26L209.892 394.788L212.524 387.662H213.672L209.892 397.56L206.112 387.662ZM218.606 395.054L219.446 395.516C219.25 395.889 219.012 396.202 218.732 396.454C218.2 396.93 217.556 397.168 216.8 397.168C216.016 397.168 215.339 396.916 214.77 396.412C214.21 395.899 213.93 395.138 213.93 394.13C213.93 393.243 214.182 392.511 214.686 391.932C215.199 391.344 215.885 391.05 216.744 391.05C217.714 391.05 218.447 391.405 218.942 392.114C219.334 392.674 219.516 393.402 219.488 394.298H214.966C214.975 394.886 215.157 395.362 215.512 395.726C215.866 396.09 216.3 396.272 216.814 396.272C217.271 396.272 217.668 396.132 218.004 395.852C218.265 395.628 218.466 395.362 218.606 395.054ZM215.036 393.458H218.452C218.368 393.001 218.167 392.637 217.85 392.366C217.542 392.086 217.173 391.946 216.744 391.946C216.324 391.946 215.95 392.091 215.624 392.38C215.306 392.66 215.11 393.019 215.036 393.458ZM221.034 397V391.19H222.042V391.82C222.369 391.307 222.807 391.05 223.358 391.05C223.638 391.05 223.937 391.129 224.254 391.288L223.778 392.198C223.591 392.067 223.395 392.002 223.19 392.002C222.835 392.002 222.565 392.123 222.378 392.366C222.154 392.665 222.042 393.187 222.042 393.934V397H221.034ZM228.246 392.1L227.42 392.534C227.262 392.142 226.991 391.946 226.608 391.946C226.412 391.946 226.244 392.002 226.104 392.114C225.974 392.226 225.908 392.389 225.908 392.604C225.908 392.8 225.969 392.949 226.09 393.052C226.221 393.145 226.473 393.271 226.846 393.43C227.584 393.738 228.069 394.037 228.302 394.326C228.508 394.578 228.61 394.891 228.61 395.264C228.61 395.852 228.419 396.319 228.036 396.664C227.663 397 227.187 397.168 226.608 397.168C226.496 397.168 226.375 397.154 226.244 397.126C226.114 397.107 225.932 397.061 225.698 396.986C225.474 396.902 225.26 396.748 225.054 396.524C224.849 396.3 224.69 396.02 224.578 395.684L225.446 395.32C225.68 395.955 226.072 396.272 226.622 396.272C226.93 396.272 227.164 396.179 227.322 395.992C227.49 395.805 227.574 395.591 227.574 395.348C227.574 395.217 227.551 395.105 227.504 395.012C227.467 394.909 227.397 394.821 227.294 394.746C227.201 394.671 227.108 394.611 227.014 394.564C226.93 394.517 226.804 394.457 226.636 394.382C225.89 394.055 225.418 393.771 225.222 393.528C225.045 393.304 224.956 393.019 224.956 392.674C224.956 392.17 225.11 391.773 225.418 391.484C225.736 391.195 226.146 391.05 226.65 391.05C227.388 391.05 227.92 391.4 228.246 392.1ZM233.468 387.662H235.162C236.226 387.662 237.01 387.881 237.514 388.32C238.083 388.805 238.368 389.473 238.368 390.322C238.368 391.05 238.12 391.671 237.626 392.184C237.14 392.688 236.403 392.94 235.414 392.94H234.504V397H233.468V387.662ZM234.504 388.642V391.96H235.358C235.974 391.96 236.454 391.811 236.8 391.512C237.154 391.213 237.332 390.798 237.332 390.266C237.332 389.183 236.646 388.642 235.274 388.642H234.504ZM239.6 397V391.19H240.608V391.82C240.935 391.307 241.374 391.05 241.924 391.05C242.204 391.05 242.503 391.129 242.82 391.288L242.344 392.198C242.158 392.067 241.962 392.002 241.756 392.002C241.402 392.002 241.131 392.123 240.944 392.366C240.72 392.665 240.608 393.187 240.608 393.934V397H239.6ZM243.743 391.19H244.751V397H243.743V391.19ZM243.743 389.496C243.603 389.356 243.533 389.188 243.533 388.992C243.533 388.796 243.603 388.628 243.743 388.488C243.883 388.348 244.051 388.278 244.247 388.278C244.443 388.278 244.611 388.348 244.751 388.488C244.891 388.628 244.961 388.796 244.961 388.992C244.961 389.188 244.891 389.356 244.751 389.496C244.611 389.636 244.443 389.706 244.247 389.706C244.051 389.706 243.883 389.636 243.743 389.496ZM246.655 397V391.19H247.663V391.862C248.074 391.321 248.629 391.05 249.329 391.05C250.076 391.05 250.631 391.316 250.995 391.848C251.219 392.175 251.331 392.693 251.331 393.402V397H250.323V393.43C250.323 392.954 250.234 392.599 250.057 392.366C249.842 392.086 249.525 391.946 249.105 391.946C248.676 391.946 248.335 392.095 248.083 392.394C247.803 392.721 247.663 393.243 247.663 393.962V397H246.655ZM257.781 391.61V392.814C257.324 392.235 256.717 391.946 255.961 391.946C255.392 391.946 254.907 392.142 254.505 392.534C254.104 392.917 253.903 393.444 253.903 394.116C253.903 394.788 254.104 395.315 254.505 395.698C254.907 396.081 255.387 396.272 255.947 396.272C256.694 396.272 257.319 395.969 257.823 395.362V396.566C257.273 396.967 256.657 397.168 255.975 397.168C255.07 397.168 254.323 396.883 253.735 396.314C253.157 395.735 252.867 395.007 252.867 394.13C252.867 393.243 253.161 392.511 253.749 391.932C254.337 391.344 255.079 391.05 255.975 391.05C256.647 391.05 257.249 391.237 257.781 391.61ZM259.37 391.19H260.378V397H259.37V391.19ZM259.37 389.496C259.23 389.356 259.16 389.188 259.16 388.992C259.16 388.796 259.23 388.628 259.37 388.488C259.51 388.348 259.678 388.278 259.874 388.278C260.07 388.278 260.238 388.348 260.378 388.488C260.518 388.628 260.588 388.796 260.588 388.992C260.588 389.188 260.518 389.356 260.378 389.496C260.238 389.636 260.07 389.706 259.874 389.706C259.678 389.706 259.51 389.636 259.37 389.496ZM263.29 396.188V400.22H262.282V391.19H263.29V392.002C263.803 391.367 264.466 391.05 265.278 391.05C266.146 391.05 266.832 391.358 267.336 391.974C267.849 392.581 268.106 393.299 268.106 394.13C268.106 394.97 267.854 395.689 267.35 396.286C266.846 396.874 266.169 397.168 265.32 397.168C264.471 397.168 263.794 396.841 263.29 396.188ZM265.18 396.272C265.749 396.272 266.207 396.067 266.552 395.656C266.897 395.236 267.07 394.727 267.07 394.13C267.07 393.458 266.879 392.926 266.496 392.534C266.113 392.142 265.67 391.946 265.166 391.946C264.662 391.946 264.214 392.142 263.822 392.534C263.43 392.926 263.234 393.453 263.234 394.116C263.234 394.723 263.411 395.236 263.766 395.656C264.13 396.067 264.601 396.272 265.18 396.272ZM274.103 392.016V391.19H275.111V397H274.103V396.188C273.599 396.841 272.937 397.168 272.115 397.168C271.331 397.168 270.664 396.897 270.113 396.356C269.563 395.815 269.287 395.059 269.287 394.088C269.287 393.136 269.558 392.394 270.099 391.862C270.65 391.321 271.322 391.05 272.115 391.05C272.955 391.05 273.618 391.372 274.103 392.016ZM272.227 391.946C271.695 391.946 271.243 392.137 270.869 392.52C270.505 392.893 270.323 393.416 270.323 394.088C270.323 394.732 270.491 395.259 270.827 395.67C271.173 396.071 271.639 396.272 272.227 396.272C272.815 396.272 273.282 396.062 273.627 395.642C273.982 395.222 274.159 394.709 274.159 394.102C274.159 393.411 273.963 392.879 273.571 392.506C273.179 392.133 272.731 391.946 272.227 391.946ZM277.02 386.794H278.028V397H277.02V386.794Z" fill="#1C1C1F"/>
<rect x="206" y="406" width="59" height="18" rx="4" fill="#FFE7D6"/>
<path d="M220 417V411.5C220 411.5 220 411.499 220 411.499C220 411.362 219.944 411.238 219.855 411.148C219.854 411.147 219.853 411.146 219.852 411.145C219.805 411.098 219.75 411.062 219.691 411.038C219.632 411.013 219.568 411 219.5 411H214C213.724 411 213.5 411.224 213.5 411.5C213.5 411.776 213.724 412 214 412H218.293L212.146 418.146C211.951 418.342 211.951 418.658 212.146 418.854C212.342 419.049 212.658 419.049 212.854 418.854L219 412.707V417C219 417.276 219.224 417.5 219.5 417.5C219.776 417.5 220 417.276 220 417Z" fill="#FF6600"/>
<path d="M224.042 410.996H225.197L227.15 415.879L229.103 410.996H230.258L227.15 418.452L224.042 410.996ZM230.947 413.579H231.976V418H230.947V413.579ZM230.989 412.225C230.863 412.099 230.8 411.941 230.8 411.752C230.8 411.563 230.863 411.406 230.989 411.28C231.115 411.154 231.272 411.091 231.461 411.091C231.65 411.091 231.808 411.154 231.934 411.28C232.06 411.406 232.123 411.563 232.123 411.752C232.123 411.941 232.06 412.099 231.934 412.225C231.808 412.351 231.65 412.414 231.461 412.414C231.272 412.414 231.115 412.351 230.989 412.225ZM233.275 418V413.579H234.304V413.978C234.437 413.824 234.58 413.702 234.734 413.611C234.902 413.513 235.112 413.464 235.364 413.464C235.665 413.464 235.935 413.534 236.173 413.674L235.753 414.608C235.585 414.503 235.41 414.451 235.228 414.451C234.955 414.451 234.741 414.531 234.587 414.692C234.398 414.895 234.304 415.235 234.304 415.711V418H233.275ZM239.53 416.509L240.391 416.992C240.195 417.342 239.947 417.611 239.646 417.8C239.303 418.024 238.869 418.137 238.344 418.137C237.728 418.137 237.231 417.947 236.853 417.569C236.419 417.135 236.202 416.572 236.202 415.879C236.202 415.151 236.436 414.545 236.905 414.062C237.304 413.663 237.798 413.464 238.386 413.464C238.96 413.464 239.432 413.656 239.803 414.041C240.216 414.468 240.423 415.091 240.423 415.91V416.036H237.252C237.28 416.407 237.406 416.705 237.63 416.929C237.819 417.118 238.081 417.212 238.417 417.212C238.69 417.212 238.925 417.139 239.121 416.992C239.282 416.866 239.418 416.705 239.53 416.509ZM237.325 415.196H239.373C239.331 414.951 239.226 414.752 239.058 414.598C238.876 414.43 238.645 414.346 238.365 414.346C238.071 414.346 237.829 414.44 237.64 414.629C237.486 414.769 237.381 414.958 237.325 415.196ZM241.498 418V413.579H242.527V413.989C242.814 413.639 243.178 413.464 243.619 413.464C244.13 413.464 244.512 413.681 244.764 414.115C245.065 413.681 245.502 413.464 246.076 413.464C246.65 413.464 247.07 413.695 247.336 414.157C247.49 414.43 247.567 414.801 247.567 415.27V418H246.538V415.564C246.538 415.179 246.507 414.916 246.444 414.776C246.346 414.517 246.15 414.388 245.856 414.388C245.604 414.388 245.401 414.496 245.247 414.713C245.114 414.902 245.047 415.238 245.047 415.721V418H244.018V415.564C244.018 415.179 243.987 414.916 243.924 414.776C243.826 414.517 243.63 414.388 243.336 414.388C243.084 414.388 242.881 414.496 242.727 414.713C242.594 414.902 242.527 415.238 242.527 415.721V418H241.498ZM251.968 416.509L252.829 416.992C252.633 417.342 252.385 417.611 252.084 417.8C251.741 418.024 251.307 418.137 250.782 418.137C250.166 418.137 249.669 417.947 249.291 417.569C248.857 417.135 248.64 416.572 248.64 415.879C248.64 415.151 248.874 414.545 249.343 414.062C249.742 413.663 250.236 413.464 250.824 413.464C251.398 413.464 251.87 413.656 252.241 414.041C252.654 414.468 252.861 415.091 252.861 415.91V416.036H249.69C249.718 416.407 249.844 416.705 250.068 416.929C250.257 417.118 250.519 417.212 250.855 417.212C251.128 417.212 251.363 417.139 251.559 416.992C251.72 416.866 251.856 416.705 251.968 416.509ZM249.763 415.196H251.811C251.769 414.951 251.664 414.752 251.496 414.598C251.314 414.43 251.083 414.346 250.803 414.346C250.509 414.346 250.267 414.44 250.078 414.629C249.924 414.769 249.819 414.958 249.763 415.196ZM253.926 418V413.579H254.955V413.989C255.27 413.639 255.669 413.464 256.152 413.464C256.733 413.464 257.167 413.663 257.454 414.062C257.636 414.321 257.727 414.731 257.727 415.291V418H256.698V415.543C256.698 415.277 256.677 415.06 256.635 414.892C256.593 414.724 256.526 414.608 256.435 414.545C256.344 414.475 256.26 414.433 256.183 414.419C256.113 414.398 256.015 414.388 255.889 414.388C255.742 414.388 255.623 414.402 255.532 414.43C255.448 414.451 255.354 414.507 255.249 414.598C255.151 414.682 255.077 414.832 255.028 415.049C254.979 415.259 254.955 415.536 254.955 415.879V418H253.926ZM260.88 414.524H260.093V418H259.064V414.524H258.633V413.579H259.064V411.962H260.093V413.579H260.88V414.524Z" fill="#FF6600"/>
<path d="M209.4 439V431.162H208.1L208.35 430.662H209.95V439H209.4ZM216.648 439H211.511L214.711 435.475C215.152 434.975 215.457 434.6 215.623 434.35C215.948 433.85 216.111 433.375 216.111 432.925C216.111 432.392 215.927 431.946 215.561 431.587C215.202 431.229 214.74 431.05 214.173 431.05C213.573 431.05 213.094 431.254 212.736 431.662C212.411 432.021 212.248 432.475 212.248 433.025H211.698C211.698 432.317 211.919 431.733 212.361 431.275C212.827 430.792 213.444 430.55 214.211 430.55C214.927 430.55 215.519 430.779 215.986 431.237C216.452 431.687 216.686 432.25 216.686 432.925C216.686 433.517 216.486 434.087 216.086 434.637C215.894 434.904 215.648 435.204 215.348 435.537L212.673 438.5H216.648V439ZM218.534 434.587C218.451 434.496 218.409 434.383 218.409 434.25C218.409 434.117 218.451 434.008 218.534 433.925C218.626 433.833 218.738 433.787 218.871 433.787C219.005 433.787 219.113 433.833 219.196 433.925C219.288 434.008 219.334 434.117 219.334 434.25C219.334 434.383 219.288 434.496 219.196 434.587C219.113 434.671 219.005 434.712 218.871 434.712C218.738 434.712 218.626 434.671 218.534 434.587ZM218.534 439C218.451 438.917 218.409 438.808 218.409 438.675C218.409 438.542 218.451 438.433 218.534 438.35C218.626 438.258 218.738 438.212 218.871 438.212C219.005 438.212 219.113 438.258 219.196 438.35C219.288 438.433 219.334 438.542 219.334 438.675C219.334 438.808 219.288 438.917 219.196 439C219.113 439.092 219.005 439.138 218.871 439.138C218.738 439.138 218.626 439.092 218.534 439ZM225.323 430.387V436.912H226.486V437.412H225.323V439H224.773V437.412H220.286L225.323 430.387ZM221.261 436.912H224.773V432.012L221.261 436.912ZM231.459 434.675C231.892 434.842 232.226 435.117 232.459 435.5C232.701 435.883 232.821 436.312 232.821 436.787C232.821 437.496 232.588 438.067 232.121 438.5C231.655 438.925 231.084 439.138 230.409 439.138C229.734 439.138 229.163 438.925 228.696 438.5C228.23 438.067 227.996 437.496 227.996 436.787C227.996 436.312 228.113 435.883 228.346 435.5C228.588 435.117 228.926 434.842 229.359 434.675C228.584 434.267 228.196 433.625 228.196 432.75C228.196 432.125 228.409 431.604 228.834 431.188C229.259 430.762 229.784 430.55 230.409 430.55C231.034 430.55 231.559 430.762 231.984 431.188C232.409 431.604 232.621 432.125 232.621 432.75C232.621 433.625 232.234 434.267 231.459 434.675ZM229.246 433.962C229.571 434.279 229.959 434.437 230.409 434.437C230.859 434.437 231.242 434.279 231.559 433.962C231.884 433.637 232.046 433.233 232.046 432.75C232.046 432.258 231.888 431.854 231.571 431.537C231.255 431.212 230.867 431.05 230.409 431.05C229.951 431.05 229.563 431.212 229.246 431.537C228.93 431.854 228.771 432.258 228.771 432.75C228.771 433.233 228.93 433.637 229.246 433.962ZM229.071 438.112C229.413 438.462 229.859 438.637 230.409 438.637C230.959 438.637 231.401 438.462 231.734 438.112C232.076 437.754 232.246 437.312 232.246 436.787C232.246 436.237 232.076 435.787 231.734 435.437C231.392 435.087 230.951 434.912 230.409 434.912C229.867 434.912 229.426 435.087 229.084 435.437C228.742 435.787 228.571 436.237 228.571 436.787C228.571 437.312 228.738 437.754 229.071 438.112Z" fill="#84848A"/>
<path d="M330.542 415.536V414.5H333.622V415.536H330.542ZM341.032 408.662V409.614H338.036L337.434 411.63C337.593 411.593 337.789 411.574 338.022 411.574C338.946 411.574 339.688 411.882 340.248 412.498C340.818 413.114 341.102 413.884 341.102 414.808C341.102 415.816 340.771 416.628 340.108 417.244C339.455 417.86 338.652 418.168 337.7 418.168C336.898 418.168 336.202 417.925 335.614 417.44C335.278 417.151 335.008 416.833 334.802 416.488L335.628 415.9C335.768 416.18 335.978 416.432 336.258 416.656C336.716 417.029 337.22 417.216 337.77 417.216C338.424 417.216 338.97 416.983 339.408 416.516C339.847 416.049 340.066 415.485 340.066 414.822C340.066 414.15 339.847 413.599 339.408 413.17C338.979 412.741 338.433 412.526 337.77 412.526C337.182 412.526 336.58 412.741 335.964 413.17L337.322 408.662H341.032ZM348.653 416.768C348.009 417.701 347.211 418.168 346.259 418.168C345.307 418.168 344.509 417.701 343.865 416.768C343.24 415.863 342.927 414.719 342.927 413.338C342.927 411.957 343.24 410.813 343.865 409.908C344.509 408.975 345.307 408.508 346.259 408.508C347.211 408.508 348.009 408.975 348.653 409.908C349.279 410.813 349.591 411.957 349.591 413.338C349.591 414.719 349.279 415.863 348.653 416.768ZM347.869 410.496C347.44 409.805 346.903 409.46 346.259 409.46C345.615 409.46 345.079 409.805 344.649 410.496C344.192 411.224 343.963 412.171 343.963 413.338C343.963 414.505 344.192 415.452 344.649 416.18C345.079 416.871 345.615 417.216 346.259 417.216C346.903 417.216 347.44 416.871 347.869 416.18C348.327 415.452 348.555 414.505 348.555 413.338C348.555 412.171 348.327 411.224 347.869 410.496ZM351.346 417.93C351.206 417.79 351.136 417.627 351.136 417.44C351.136 417.253 351.206 417.09 351.346 416.95C351.486 416.81 351.65 416.74 351.836 416.74C352.023 416.74 352.186 416.81 352.326 416.95C352.466 417.09 352.536 417.253 352.536 417.44C352.536 417.627 352.466 417.79 352.326 417.93C352.186 418.07 352.023 418.14 351.836 418.14C351.65 418.14 351.486 418.07 351.346 417.93ZM359.796 416.768C359.152 417.701 358.354 418.168 357.402 418.168C356.45 418.168 355.652 417.701 355.008 416.768C354.382 415.863 354.07 414.719 354.07 413.338C354.07 411.957 354.382 410.813 355.008 409.908C355.652 408.975 356.45 408.508 357.402 408.508C358.354 408.508 359.152 408.975 359.796 409.908C360.421 410.813 360.734 411.957 360.734 413.338C360.734 414.719 360.421 415.863 359.796 416.768ZM359.012 410.496C358.582 409.805 358.046 409.46 357.402 409.46C356.758 409.46 356.221 409.805 355.792 410.496C355.334 411.224 355.106 412.171 355.106 413.338C355.106 414.505 355.334 415.452 355.792 416.18C356.221 416.871 356.758 417.216 357.402 417.216C358.046 417.216 358.582 416.871 359.012 416.18C359.469 415.452 359.698 414.505 359.698 413.338C359.698 412.171 359.469 411.224 359.012 410.496ZM367.753 416.768C367.109 417.701 366.311 418.168 365.359 418.168C364.407 418.168 363.609 417.701 362.965 416.768C362.339 415.863 362.027 414.719 362.027 413.338C362.027 411.957 362.339 410.813 362.965 409.908C363.609 408.975 364.407 408.508 365.359 408.508C366.311 408.508 367.109 408.975 367.753 409.908C368.378 410.813 368.691 411.957 368.691 413.338C368.691 414.719 368.378 415.863 367.753 416.768ZM366.969 410.496C366.539 409.805 366.003 409.46 365.359 409.46C364.715 409.46 364.178 409.805 363.749 410.496C363.291 411.224 363.063 412.171 363.063 413.338C363.063 414.505 363.291 415.452 363.749 416.18C364.178 416.871 364.715 417.216 365.359 417.216C366.003 417.216 366.539 416.871 366.969 416.18C367.426 415.452 367.655 414.505 367.655 413.338C367.655 412.171 367.426 411.224 366.969 410.496ZM375.71 416.768C375.066 417.701 374.268 418.168 373.316 418.168C372.364 418.168 371.566 417.701 370.922 416.768C370.297 415.863 369.984 414.719 369.984 413.338C369.984 411.957 370.297 410.813 370.922 409.908C371.566 408.975 372.364 408.508 373.316 408.508C374.268 408.508 375.066 408.975 375.71 409.908C376.335 410.813 376.648 411.957 376.648 413.338C376.648 414.719 376.335 415.863 375.71 416.768ZM374.926 410.496C374.497 409.805 373.96 409.46 373.316 409.46C372.672 409.46 372.135 409.805 371.706 410.496C371.249 411.224 371.02 412.171 371.02 413.338C371.02 414.505 371.249 415.452 371.706 416.18C372.135 416.871 372.672 417.216 373.316 417.216C373.96 417.216 374.497 416.871 374.926 416.18C375.383 415.452 375.612 414.505 375.612 413.338C375.612 412.171 375.383 411.224 374.926 410.496ZM386.024 408.662V409.642H382.804V412.4H385.912V413.38H382.804V418H381.768V408.662H386.024ZM394.979 409.432V410.72C394.605 410.347 394.199 410.057 393.761 409.852C393.229 409.609 392.692 409.488 392.151 409.488C391.077 409.488 390.181 409.866 389.463 410.622C388.753 411.369 388.399 412.288 388.399 413.38C388.399 414.556 388.786 415.485 389.561 416.166C390.345 416.847 391.213 417.188 392.165 417.188C392.762 417.188 393.341 417.043 393.901 416.754C394.293 416.558 394.652 416.297 394.979 415.97V417.258C394.129 417.865 393.191 418.168 392.165 418.168C390.783 418.168 389.631 417.706 388.707 416.782C387.792 415.858 387.335 414.719 387.335 413.366C387.335 411.975 387.797 410.818 388.721 409.894C389.654 408.97 390.821 408.508 392.221 408.508C393.247 408.508 394.167 408.816 394.979 409.432ZM401.146 408.662V409.642H397.926V412.4H401.034V413.38H397.926V418H396.89V408.662H401.146ZM408.739 418L407.647 415.368H403.671L402.551 418H401.403L405.701 408.214L409.887 418H408.739ZM404.077 414.388H407.241L405.673 410.65L404.077 414.388Z" fill="#FD3C2D"/>
<g clip-path="url(#clip3_28_1152)">
<rect x="418" y="404" width="20" height="20" rx="10" fill="#F6F7FB"/>
<path d="M425.158 417.817L428.975 414L425.158 410.175L426.333 409L431.333 414L426.333 419L425.158 417.817Z" fill="#0C29FF"/>
</g>
<path d="M142 460H438" stroke="#E0E0E0"/>
</g>
</g>
<rect x="111" y="1" width="358" height="638" rx="39" stroke="#1C1C1F" stroke-width="2"/>
<g filter="url(#filter0_d_28_1152)">
<rect x="49.2695" y="96" width="482.459" height="180" rx="32" fill="white" shape-rendering="crispEdges"/>
<path fill-rule="evenodd" clip-rule="evenodd" d="M224.302 140.262C225.117 140.262 225.778 140.923 225.778 141.738V167.694C225.778 167.836 225.758 167.972 225.721 168.102C225.758 168.247 225.778 168.393 225.778 168.541C225.778 171.665 217.19 174.197 206.597 174.197C196.004 174.197 187.417 171.665 187.417 168.541C187.417 168.393 187.436 168.247 187.474 168.102C187.437 167.972 187.417 167.836 187.417 167.694V141.738C187.417 140.923 188.078 140.262 188.892 140.262H224.302Z" fill="#EBA77A"/>
<path fill-rule="evenodd" clip-rule="evenodd" d="M222.706 168.233C222.669 168.26 222.629 168.29 222.583 168.322C221.978 168.744 220.91 169.243 219.325 169.71C216.194 170.633 211.693 171.246 206.597 171.246C201.502 171.246 197.001 170.633 193.869 169.71C192.285 169.243 191.217 168.744 190.612 168.322C190.566 168.29 190.525 168.26 190.489 168.233L190.533 168.064L190.368 167.488V143.213H222.827V167.488L222.662 168.064L222.706 168.233ZM190.226 167.994C190.225 167.994 190.231 168.003 190.247 168.021C190.235 168.003 190.227 167.994 190.226 167.994ZM222.948 168.021C222.964 168.003 222.97 167.994 222.969 167.994C222.968 167.994 222.96 168.003 222.948 168.021ZM225.721 168.102C225.758 168.247 225.778 168.393 225.778 168.541C225.778 171.665 217.19 174.197 206.597 174.197C196.004 174.197 187.417 171.665 187.417 168.541C187.417 168.393 187.436 168.247 187.474 168.102C187.437 167.972 187.417 167.836 187.417 167.694V141.738C187.417 140.923 188.078 140.262 188.892 140.262H224.302C225.117 140.262 225.778 140.923 225.778 141.738V167.694C225.778 167.836 225.758 167.972 225.721 168.102Z" fill="#1C1C1F"/>
<path d="M187.417 141C187.417 144.667 196.004 147.64 206.597 147.64C217.19 147.64 225.778 144.667 225.778 141C225.778 137.333 217.19 134.361 206.597 134.361C196.004 134.361 187.417 137.333 187.417 141Z" fill="#CC8759"/>
<path fill-rule="evenodd" clip-rule="evenodd" d="M190.338 140.817C190.338 140.817 190.34 140.823 190.346 140.834C190.342 140.823 190.339 140.817 190.338 140.817ZM190.471 141C190.54 140.923 190.642 140.823 190.793 140.699C191.395 140.207 192.443 139.633 194 139.094C197.086 138.026 201.539 137.312 206.597 137.312C211.655 137.312 216.109 138.026 219.195 139.094C220.751 139.633 221.8 140.207 222.402 140.699C222.552 140.823 222.655 140.923 222.724 141C222.655 141.077 222.552 141.177 222.402 141.301C221.8 141.793 220.751 142.368 219.195 142.906C216.109 143.974 211.655 144.689 206.597 144.689C201.539 144.689 197.086 143.974 194 142.906C192.443 142.368 191.395 141.793 190.793 141.301C190.642 141.177 190.54 141.077 190.471 141ZM222.857 140.817C222.856 140.817 222.853 140.823 222.849 140.834C222.855 140.823 222.857 140.817 222.857 140.817ZM222.857 141.183C222.857 141.183 222.855 141.177 222.849 141.166C222.853 141.178 222.856 141.183 222.857 141.183ZM190.346 141.166C190.34 141.177 190.338 141.183 190.338 141.183C190.339 141.183 190.342 141.178 190.346 141.166ZM206.597 147.64C196.004 147.64 187.417 144.667 187.417 141C187.417 137.333 196.004 134.361 206.597 134.361C217.19 134.361 225.778 137.333 225.778 141C225.778 144.667 217.19 147.64 206.597 147.64Z" fill="#1C1C1F"/>
<path d="M199.22 134.361C199.22 138.435 202.523 141.738 206.597 141.738C210.672 141.738 213.974 138.435 213.974 134.361C213.974 130.286 210.672 126.984 206.597 126.984C202.523 126.984 199.22 130.286 199.22 134.361Z" fill="#FFE066"/>
<path fill-rule="evenodd" clip-rule="evenodd" d="M199.22 141.738V140.262H202.17C200.379 138.916 199.22 136.774 199.22 134.361C199.22 130.286 202.523 126.984 206.597 126.984C210.672 126.984 213.974 130.286 213.974 134.361C213.974 136.774 212.816 138.916 211.024 140.262H213.974V141.738H199.22ZM202.171 134.361C202.171 136.805 204.153 138.787 206.597 138.787C209.042 138.787 211.024 136.805 211.024 134.361C211.024 131.916 209.042 129.934 206.597 129.934C204.153 129.934 202.171 131.916 202.171 134.361Z" fill="#1C1C1F"/>
<path d="M250.936 124.362V126.345H246.144V129.836H250.77V131.819H246.144V138.139H244.037V124.362H250.936ZM253.529 130.517C254.424 129.65 255.533 129.216 256.855 129.216C258.176 129.216 259.278 129.65 260.159 130.517C261.055 131.371 261.502 132.466 261.502 133.802C261.502 135.124 261.055 136.225 260.159 137.107C259.278 137.974 258.176 138.408 256.855 138.408C255.533 138.408 254.424 137.974 253.529 137.107C252.648 136.225 252.207 135.124 252.207 133.802C252.207 132.466 252.648 131.371 253.529 130.517ZM254.975 135.847C255.443 136.342 256.07 136.59 256.855 136.59C257.639 136.59 258.266 136.342 258.734 135.847C259.202 135.337 259.436 134.662 259.436 133.822C259.436 132.9 259.182 132.204 258.672 131.736C258.176 131.268 257.571 131.034 256.855 131.034C256.138 131.034 255.526 131.268 255.016 131.736C254.52 132.204 254.273 132.9 254.273 133.822C254.273 134.662 254.507 135.337 254.975 135.847ZM263.594 138.139V129.443H265.618V130.249C266.238 129.56 267.023 129.216 267.973 129.216C269.116 129.216 269.97 129.609 270.534 130.394C270.892 130.903 271.071 131.709 271.071 132.81V138.139H269.047V133.306C269.047 132.783 269.006 132.356 268.923 132.025C268.841 131.695 268.71 131.468 268.531 131.344C268.352 131.206 268.186 131.123 268.035 131.096C267.897 131.054 267.704 131.034 267.457 131.034C267.167 131.034 266.933 131.061 266.754 131.116C266.589 131.158 266.403 131.268 266.197 131.447C266.004 131.612 265.859 131.908 265.763 132.335C265.666 132.748 265.618 133.292 265.618 133.967V138.139H263.594ZM280.002 130.455V123.081H282.026V138.139H280.002V137.231C279.327 138.015 278.46 138.408 277.399 138.408C276.119 138.408 275.093 137.954 274.322 137.045C273.564 136.136 273.185 135.048 273.185 133.781C273.185 132.404 273.592 131.302 274.404 130.476C275.23 129.636 276.236 129.216 277.42 129.216C278.508 129.216 279.368 129.629 280.002 130.455ZM277.668 131.034C276.952 131.034 276.366 131.302 275.912 131.839C275.471 132.376 275.251 133.037 275.251 133.822C275.251 134.594 275.471 135.248 275.912 135.785C276.366 136.322 276.952 136.59 277.668 136.59C278.356 136.59 278.935 136.349 279.403 135.867C279.885 135.385 280.126 134.711 280.126 133.843C280.126 132.948 279.885 132.259 279.403 131.777C278.935 131.282 278.356 131.034 277.668 131.034ZM289.414 129.443H291.438V138.139H289.414V129.443ZM289.497 126.779C289.249 126.531 289.125 126.221 289.125 125.849C289.125 125.477 289.249 125.168 289.497 124.92C289.745 124.672 290.054 124.548 290.426 124.548C290.798 124.548 291.108 124.672 291.356 124.92C291.604 125.168 291.728 125.477 291.728 125.849C291.728 126.221 291.604 126.531 291.356 126.779C291.108 127.027 290.798 127.151 290.426 127.151C290.054 127.151 289.745 127.027 289.497 126.779ZM293.993 138.139V129.443H296.017V130.249C296.582 129.56 297.298 129.216 298.166 129.216C299.171 129.216 299.921 129.643 300.417 130.497C301.009 129.643 301.87 129.216 302.999 129.216C304.128 129.216 304.954 129.671 305.478 130.579C305.781 131.116 305.932 131.846 305.932 132.769V138.139H303.908V133.347C303.908 132.59 303.846 132.074 303.722 131.798C303.529 131.289 303.144 131.034 302.565 131.034C302.069 131.034 301.67 131.247 301.367 131.674C301.106 132.046 300.975 132.707 300.975 133.657V138.139H298.95V133.347C298.95 132.59 298.888 132.074 298.765 131.798C298.572 131.289 298.186 131.034 297.608 131.034C297.112 131.034 296.713 131.247 296.41 131.674C296.148 132.046 296.017 132.707 296.017 133.657V138.139H293.993ZM310.521 137.127V142.87H308.496V129.443H310.521V130.394C311.182 129.609 312.042 129.216 313.103 129.216C314.287 129.216 315.285 129.636 316.098 130.476C316.924 131.302 317.337 132.39 317.337 133.74C317.337 135.131 316.91 136.26 316.056 137.127C315.203 137.981 314.225 138.408 313.123 138.408C312.091 138.408 311.223 137.981 310.521 137.127ZM312.855 131.034C312.166 131.034 311.581 131.282 311.099 131.777C310.631 132.259 310.397 132.948 310.397 133.843C310.397 134.711 310.631 135.385 311.099 135.867C311.581 136.349 312.166 136.59 312.855 136.59C313.571 136.59 314.149 136.322 314.59 135.785C315.044 135.248 315.272 134.594 315.272 133.822C315.272 133.037 315.044 132.376 314.59 131.839C314.149 131.302 313.571 131.034 312.855 131.034ZM319.45 138.139V129.443H321.474V130.228C321.736 129.925 322.018 129.684 322.321 129.505C322.651 129.313 323.064 129.216 323.56 129.216C324.152 129.216 324.682 129.354 325.151 129.629L324.324 131.468C323.994 131.261 323.65 131.158 323.292 131.158C322.755 131.158 322.335 131.316 322.032 131.633C321.66 132.032 321.474 132.7 321.474 133.636V138.139H319.45ZM331.756 135.206L333.45 136.156C333.064 136.845 332.575 137.375 331.983 137.747C331.308 138.188 330.455 138.408 329.422 138.408C328.21 138.408 327.232 138.036 326.489 137.293C325.635 136.439 325.208 135.33 325.208 133.967C325.208 132.535 325.669 131.344 326.592 130.394C327.377 129.609 328.348 129.216 329.504 129.216C330.634 129.216 331.563 129.595 332.293 130.352C333.105 131.192 333.512 132.418 333.512 134.029V134.277H327.274C327.329 135.007 327.577 135.592 328.017 136.033C328.389 136.404 328.905 136.59 329.566 136.59C330.103 136.59 330.565 136.446 330.95 136.156C331.267 135.909 331.536 135.592 331.756 135.206ZM327.418 132.624H331.446C331.363 132.142 331.157 131.75 330.826 131.447C330.468 131.116 330.014 130.951 329.463 130.951C328.885 130.951 328.41 131.137 328.038 131.509C327.735 131.784 327.528 132.156 327.418 132.624ZM330.269 124.197L332.128 125.147L328.905 128.121L327.79 127.419L330.269 124.197ZM334.249 129.443H336.521L338.752 134.401L340.982 129.443H343.255L338.752 138.759L334.249 129.443ZM344.462 129.443H346.487V134.421C346.487 135.151 346.611 135.674 346.859 135.991C347.161 136.391 347.602 136.59 348.18 136.59C348.759 136.59 349.199 136.391 349.502 135.991C349.75 135.674 349.874 135.151 349.874 134.421V129.443H351.899V134.483C351.899 135.764 351.589 136.714 350.969 137.334C350.253 138.05 349.31 138.408 348.139 138.408C347.01 138.408 346.094 138.05 345.392 137.334C344.772 136.714 344.462 135.764 344.462 134.483V129.443ZM359.776 130.745L358.268 131.736C357.965 131.24 357.552 130.993 357.029 130.993C356.767 130.993 356.561 131.068 356.409 131.22C356.285 131.344 356.223 131.495 356.223 131.674C356.223 131.881 356.32 132.046 356.512 132.17C356.554 132.197 356.595 132.225 356.636 132.253C356.678 132.266 356.753 132.301 356.864 132.356C356.974 132.411 357.084 132.466 357.194 132.521L358.227 133.037C358.805 133.327 359.212 133.595 359.446 133.843C359.872 134.27 360.086 134.807 360.086 135.454C360.086 136.225 359.831 136.886 359.322 137.437C358.73 138.084 357.917 138.408 356.884 138.408C356.113 138.408 355.487 138.222 355.005 137.85C354.481 137.465 354.11 136.934 353.889 136.26L355.542 135.475C355.679 135.874 355.838 136.15 356.017 136.301C356.237 136.521 356.533 136.632 356.905 136.632C357.263 136.632 357.538 136.535 357.731 136.342C357.924 136.15 358.02 135.922 358.02 135.661C358.02 135.413 357.931 135.193 357.752 135C357.559 134.807 357.27 134.628 356.884 134.463L356.141 134.112C355.562 133.836 355.163 133.588 354.943 133.368C354.53 132.969 354.323 132.48 354.323 131.901C354.323 131.172 354.564 130.552 355.046 130.042C355.569 129.492 356.278 129.216 357.173 129.216C357.793 129.216 358.33 129.368 358.785 129.671C359.198 129.932 359.528 130.29 359.776 130.745Z" fill="#84848A"/>
<path d="M255.365 169.571V173.041H242.735L246.725 168.863C248.157 167.368 249.235 166.038 249.959 164.873C250.526 163.992 250.809 163.173 250.809 162.418C250.809 161.757 250.652 161.253 250.337 160.907C250.054 160.592 249.668 160.435 249.18 160.435C248.598 160.435 248.141 160.648 247.811 161.072C247.465 161.513 247.276 162.158 247.244 163.008H243.019C243.035 161.246 243.617 159.79 244.766 158.641C245.899 157.508 247.386 156.941 249.227 156.941C251.1 156.941 252.579 157.484 253.665 158.57C254.688 159.593 255.2 160.884 255.2 162.442C255.2 164.11 254.421 165.668 252.863 167.116L250.219 169.571H255.365ZM267.962 157.295V160.766H262.509L262.225 162.512C262.713 162.434 263.138 162.394 263.5 162.394C265.263 162.394 266.648 162.914 267.655 163.952C268.615 164.912 269.095 166.156 269.095 167.682C269.095 169.272 268.591 170.586 267.584 171.625C266.435 172.805 264.798 173.395 262.674 173.395C260.628 173.395 258.857 172.923 257.362 171.979L257.976 168.154C258.574 168.705 259.204 169.13 259.865 169.429C260.636 169.791 261.423 169.972 262.225 169.972C263.107 169.972 263.791 169.712 264.279 169.193C264.688 168.752 264.893 168.217 264.893 167.588C264.893 166.895 264.641 166.329 264.137 165.888C263.555 165.369 262.611 165.109 261.305 165.109C260.25 165.109 259.282 165.33 258.401 165.77L259.77 157.295H267.962ZM278.764 161.096C278.402 160.766 277.985 160.6 277.513 160.6C277.041 160.6 276.624 160.766 276.262 161.096C275.853 161.442 275.522 162.025 275.27 162.843C275.019 163.646 274.893 164.432 274.893 165.204C274.893 165.912 275.011 166.683 275.247 167.517C275.499 168.335 275.837 168.933 276.262 169.311C276.624 169.642 277.041 169.807 277.513 169.807C277.985 169.807 278.402 169.642 278.764 169.311C279.173 168.949 279.504 168.367 279.756 167.564C280.008 166.746 280.133 165.967 280.133 165.227C280.133 164.488 280 163.701 279.732 162.867C279.48 162.032 279.158 161.442 278.764 161.096ZM284.194 165.18C284.194 167.934 283.415 170.074 281.857 171.601C280.645 172.797 279.197 173.395 277.513 173.395C275.829 173.395 274.381 172.797 273.17 171.601C271.611 170.074 270.832 167.934 270.832 165.18C270.832 162.41 271.611 160.262 273.17 158.735C274.381 157.539 275.829 156.941 277.513 156.941C279.197 156.941 280.645 157.539 281.857 158.735C283.415 160.262 284.194 162.41 284.194 165.18ZM289.897 172.758C289.409 173.246 288.835 173.49 288.174 173.49C287.513 173.49 286.939 173.246 286.451 172.758C285.963 172.27 285.719 171.695 285.719 171.034C285.719 170.373 285.963 169.799 286.451 169.311C286.939 168.823 287.513 168.579 288.174 168.579C288.835 168.579 289.417 168.831 289.921 169.335C290.377 169.791 290.606 170.358 290.606 171.034C290.606 171.711 290.369 172.286 289.897 172.758ZM300.065 161.096C299.704 160.766 299.286 160.6 298.814 160.6C298.342 160.6 297.925 160.766 297.563 161.096C297.154 161.442 296.824 162.025 296.572 162.843C296.32 163.646 296.194 164.432 296.194 165.204C296.194 165.912 296.312 166.683 296.548 167.517C296.8 168.335 297.138 168.933 297.563 169.311C297.925 169.642 298.342 169.807 298.814 169.807C299.286 169.807 299.704 169.642 300.065 169.311C300.475 168.949 300.805 168.367 301.057 167.564C301.309 166.746 301.435 165.967 301.435 165.227C301.435 164.488 301.301 163.701 301.033 162.867C300.782 162.032 300.459 161.442 300.065 161.096ZM305.495 165.18C305.495 167.934 304.716 170.074 303.158 171.601C301.946 172.797 300.498 173.395 298.814 173.395C297.13 173.395 295.683 172.797 294.471 171.601C292.913 170.074 292.134 167.934 292.134 165.18C292.134 162.41 292.913 160.262 294.471 158.735C295.683 157.539 297.13 156.941 298.814 156.941C300.498 156.941 301.946 157.539 303.158 158.735C304.716 160.262 305.495 162.41 305.495 165.18ZM314.22 161.096C313.858 160.766 313.441 160.6 312.969 160.6C312.497 160.6 312.08 160.766 311.718 161.096C311.309 161.442 310.978 162.025 310.726 162.843C310.475 163.646 310.349 164.432 310.349 165.204C310.349 165.912 310.467 166.683 310.703 167.517C310.955 168.335 311.293 168.933 311.718 169.311C312.08 169.642 312.497 169.807 312.969 169.807C313.441 169.807 313.858 169.642 314.22 169.311C314.629 168.949 314.96 168.367 315.212 167.564C315.463 166.746 315.589 165.967 315.589 165.227C315.589 164.488 315.456 163.701 315.188 162.867C314.936 162.032 314.614 161.442 314.22 161.096ZM319.65 165.18C319.65 167.934 318.871 170.074 317.313 171.601C316.101 172.797 314.653 173.395 312.969 173.395C311.285 173.395 309.837 172.797 308.625 171.601C307.067 170.074 306.288 167.934 306.288 165.18C306.288 162.41 307.067 160.262 308.625 158.735C309.837 157.539 311.285 156.941 312.969 156.941C314.653 156.941 316.101 157.539 317.313 158.735C318.871 160.262 319.65 162.41 319.65 165.18ZM328.375 161.096C328.013 160.766 327.596 160.6 327.124 160.6C326.652 160.6 326.235 160.766 325.873 161.096C325.463 161.442 325.133 162.025 324.881 162.843C324.629 163.646 324.503 164.432 324.503 165.204C324.503 165.912 324.621 166.683 324.858 167.517C325.109 168.335 325.448 168.933 325.873 169.311C326.235 169.642 326.652 169.807 327.124 169.807C327.596 169.807 328.013 169.642 328.375 169.311C328.784 168.949 329.115 168.367 329.366 167.564C329.618 166.746 329.744 165.967 329.744 165.227C329.744 164.488 329.61 163.701 329.343 162.867C329.091 162.032 328.768 161.442 328.375 161.096ZM333.804 165.18C333.804 167.934 333.025 170.074 331.467 171.601C330.256 172.797 328.808 173.395 327.124 173.395C325.44 173.395 323.992 172.797 322.78 171.601C321.222 170.074 320.443 167.934 320.443 165.18C320.443 162.41 321.222 160.262 322.78 158.735C323.992 157.539 325.44 156.941 327.124 156.941C328.808 156.941 330.256 157.539 331.467 158.735C333.025 160.262 333.804 162.41 333.804 165.18ZM350.376 157.295V160.766H345.443V163.386H349.928V166.856H345.443V173.041H341.359V157.295H350.376ZM369.633 167.777V172.616C368.201 173.135 367.021 173.395 366.092 173.395C363.637 173.395 361.607 172.608 360.002 171.034C359.247 170.279 358.656 169.398 358.232 168.391C357.822 167.368 357.618 166.337 357.618 165.298C357.618 164.212 357.83 163.158 358.255 162.135C358.696 161.112 359.278 160.231 360.002 159.491C361.607 157.854 363.59 157.036 365.951 157.036C367.084 157.036 368.312 157.303 369.633 157.838V162.725C368.705 161.576 367.517 161.002 366.069 161.002C364.952 161.002 364.007 161.348 363.236 162.04C362.323 162.89 361.867 163.968 361.867 165.274C361.867 166.518 362.292 167.541 363.142 168.343C363.913 169.067 364.889 169.429 366.069 169.429C367.438 169.429 368.626 168.878 369.633 167.777ZM381.245 157.295V160.766H376.311V163.386H380.796V166.856H376.311V173.041H372.227V157.295H381.245ZM393.361 173.041L392.393 170.397H386.681L385.618 173.041H381.298L387.342 157.295H391.803L397.728 173.041H393.361ZM387.814 167.281H391.307L389.537 162.182L387.814 167.281Z" fill="#1C1C1F"/>
<rect x="72.8761" y="205.647" width="211.721" height="47.2131" rx="23.6066" fill="#E0E4FF"/>
<path d="M153.892 230.483C154.571 230.483 155.122 229.933 155.122 229.254C155.122 228.575 154.571 228.024 153.892 228.024L146.515 228.024V220.647C146.515 219.968 145.965 219.418 145.286 219.418C144.607 219.418 144.056 219.968 144.056 220.647V228.024H136.679C136 228.024 135.45 228.575 135.45 229.254C135.45 229.933 136 230.483 136.679 230.483H144.056V237.86C144.056 238.54 144.607 239.09 145.286 239.09C145.965 239.09 146.515 238.54 146.515 237.86V230.483H153.892Z" fill="#0C29FF"/>
<path d="M174.227 236.229L172.781 232.904H166.894L165.386 236.229H163.114L169.972 221.646L176.499 236.229H174.227ZM167.762 230.921H171.934L169.889 226.253L167.762 230.921ZM177.868 227.533H179.892V240.96H177.868V227.533ZM177.95 224.869C177.702 224.621 177.578 224.311 177.578 223.939C177.578 223.567 177.702 223.258 177.95 223.01C178.198 222.762 178.508 222.638 178.88 222.638C179.252 222.638 179.561 222.762 179.809 223.01C180.057 223.258 180.181 223.567 180.181 223.939C180.181 224.311 180.057 224.621 179.809 224.869C179.561 225.117 179.252 225.241 178.88 225.241C178.508 225.241 178.198 225.117 177.95 224.869ZM183.314 228.607C184.209 227.74 185.318 227.306 186.64 227.306C187.962 227.306 189.063 227.74 189.945 228.607C190.84 229.461 191.287 230.556 191.287 231.892C191.287 233.214 190.84 234.315 189.945 235.197C189.063 236.064 187.962 236.498 186.64 236.498C185.318 236.498 184.209 236.064 183.314 235.197C182.433 234.315 181.992 233.214 181.992 231.892C181.992 230.556 182.433 229.461 183.314 228.607ZM184.76 233.937C185.228 234.432 185.855 234.68 186.64 234.68C187.425 234.68 188.051 234.432 188.519 233.937C188.988 233.427 189.222 232.752 189.222 231.912C189.222 230.99 188.967 230.294 188.457 229.826C187.962 229.358 187.356 229.124 186.64 229.124C185.924 229.124 185.311 229.358 184.801 229.826C184.306 230.294 184.058 230.99 184.058 231.912C184.058 232.752 184.292 233.427 184.76 233.937ZM193.4 227.533H195.424V232.511C195.424 233.241 195.548 233.764 195.796 234.081C196.099 234.481 196.539 234.68 197.118 234.68C197.696 234.68 198.137 234.481 198.44 234.081C198.688 233.764 198.812 233.241 198.812 232.511V227.533H200.836V232.573C200.836 233.854 200.526 234.804 199.906 235.424C199.19 236.14 198.247 236.498 197.077 236.498C195.947 236.498 195.032 236.14 194.329 235.424C193.71 234.804 193.4 233.854 193.4 232.573V227.533ZM207.04 229.392H205.491V236.229H203.467V229.392H202.62V227.533H203.467V224.352H205.491V227.533H207.04V229.392ZM214.501 233.296L216.195 234.246C215.809 234.935 215.32 235.465 214.728 235.837C214.053 236.278 213.2 236.498 212.167 236.498C210.955 236.498 209.977 236.126 209.234 235.382C208.38 234.529 207.953 233.42 207.953 232.057C207.953 230.625 208.414 229.434 209.337 228.483C210.122 227.699 211.093 227.306 212.249 227.306C213.379 227.306 214.308 227.685 215.038 228.442C215.85 229.282 216.257 230.508 216.257 232.119V232.367H210.019C210.074 233.097 210.322 233.682 210.762 234.122C211.134 234.494 211.65 234.68 212.311 234.68C212.848 234.68 213.31 234.536 213.695 234.246C214.012 233.999 214.281 233.682 214.501 233.296ZM210.163 230.714H214.191C214.108 230.232 213.902 229.84 213.571 229.537C213.213 229.206 212.759 229.041 212.208 229.041C211.63 229.041 211.155 229.227 210.783 229.599C210.48 229.874 210.273 230.246 210.163 230.714ZM218.372 236.229V227.533H220.397V228.318C220.658 228.015 220.94 227.774 221.243 227.595C221.574 227.402 221.987 227.306 222.483 227.306C223.075 227.306 223.605 227.444 224.073 227.719L223.247 229.558C222.917 229.351 222.572 229.248 222.214 229.248C221.677 229.248 221.257 229.406 220.954 229.723C220.582 230.122 220.397 230.79 220.397 231.726V236.229H218.372Z" fill="#0C29FF"/>
<rect x="296.401" y="205.647" width="211.721" height="47.2131" rx="23.6066" fill="#E0E4FF"/>
<path d="M379.558 237.054C379.68 237.006 379.793 236.933 379.891 236.835C379.987 236.739 380.059 236.628 380.107 236.51C380.154 236.396 380.179 236.27 380.179 236.139L380.179 225.32C380.179 224.776 379.739 224.336 379.196 224.336C378.653 224.336 378.212 224.776 378.212 225.32L378.212 233.765L366.121 221.673C365.737 221.289 365.114 221.289 364.73 221.673C364.346 222.057 364.346 222.68 364.73 223.064L376.821 235.156L368.376 235.156C367.833 235.156 367.393 235.596 367.393 236.139C367.393 236.682 367.833 237.123 368.376 237.123L379.196 237.123C379.324 237.123 379.446 237.098 379.558 237.054Z" fill="#0C29FF"/>
<path d="M391.86 222.452H394.318C395.943 222.452 397.155 222.721 397.953 223.258C399.041 223.987 399.585 225.068 399.585 226.501C399.585 227.478 399.303 228.311 398.738 229C398.187 229.688 397.451 230.136 396.528 230.342L400.824 236.229H398.284L394.339 230.59H393.967V236.229H391.86V222.452ZM393.967 224.394V228.773H394.628C394.807 228.773 394.986 228.766 395.165 228.752C395.344 228.738 395.585 228.69 395.888 228.607C396.204 228.525 396.473 228.415 396.693 228.277C396.927 228.125 397.127 227.898 397.292 227.595C397.471 227.292 397.561 226.934 397.561 226.521C397.561 225.103 396.604 224.394 394.69 224.394H393.967ZM408.615 233.296L410.309 234.246C409.924 234.935 409.435 235.465 408.843 235.837C408.168 236.278 407.314 236.498 406.281 236.498C405.069 236.498 404.092 236.126 403.348 235.382C402.494 234.529 402.067 233.42 402.067 232.057C402.067 230.625 402.529 229.434 403.451 228.483C404.236 227.699 405.207 227.306 406.364 227.306C407.493 227.306 408.423 227.685 409.152 228.442C409.965 229.282 410.371 230.508 410.371 232.119V232.367H404.133C404.188 233.097 404.436 233.682 404.877 234.122C405.248 234.494 405.765 234.68 406.426 234.68C406.963 234.68 407.424 234.536 407.81 234.246C408.126 233.999 408.395 233.682 408.615 233.296ZM404.278 230.714H408.305C408.223 230.232 408.016 229.84 407.686 229.537C407.328 229.206 406.873 229.041 406.323 229.041C405.744 229.041 405.269 229.227 404.897 229.599C404.594 229.874 404.388 230.246 404.278 230.714ZM416.122 229.392H414.573V236.229H412.549V229.392H411.702V227.533H412.549V224.352H414.573V227.533H416.122V229.392ZM417.489 227.533H419.513V236.229H417.489V227.533ZM417.572 224.869C417.324 224.621 417.2 224.311 417.2 223.939C417.2 223.567 417.324 223.258 417.572 223.01C417.82 222.762 418.13 222.638 418.501 222.638C418.873 222.638 419.183 222.762 419.431 223.01C419.679 223.258 419.803 223.567 419.803 223.939C419.803 224.311 419.679 224.621 419.431 224.869C419.183 225.117 418.873 225.241 418.501 225.241C418.13 225.241 417.82 225.117 417.572 224.869ZM422.068 236.229V227.533H424.092V228.318C424.354 228.015 424.636 227.774 424.939 227.595C425.27 227.402 425.683 227.306 426.179 227.306C426.771 227.306 427.301 227.444 427.769 227.719L426.943 229.558C426.612 229.351 426.268 229.248 425.91 229.248C425.373 229.248 424.953 229.406 424.65 229.723C424.278 230.122 424.092 230.79 424.092 231.726V236.229H422.068ZM434.374 233.296L436.068 234.246C435.683 234.935 435.194 235.465 434.602 235.837C433.927 236.278 433.073 236.498 432.04 236.498C430.829 236.498 429.851 236.126 429.107 235.382C428.254 234.529 427.827 233.42 427.827 232.057C427.827 230.625 428.288 229.434 429.211 228.483C429.995 227.699 430.966 227.306 432.123 227.306C433.252 227.306 434.182 227.685 434.912 228.442C435.724 229.282 436.13 230.508 436.13 232.119V232.367H429.892C429.947 233.097 430.195 233.682 430.636 234.122C431.008 234.494 431.524 234.68 432.185 234.68C432.722 234.68 433.183 234.536 433.569 234.246C433.886 233.999 434.154 233.682 434.374 233.296ZM430.037 230.714H434.065C433.982 230.232 433.775 229.84 433.445 229.537C433.087 229.206 432.633 229.041 432.082 229.041C431.503 229.041 431.028 229.227 430.656 229.599C430.354 229.874 430.147 230.246 430.037 230.714ZM438.246 236.229V227.533H440.27V228.318C440.532 228.015 440.814 227.774 441.117 227.595C441.447 227.402 441.861 227.306 442.356 227.306C442.948 227.306 443.479 227.444 443.947 227.719L443.121 229.558C442.79 229.351 442.446 229.248 442.088 229.248C441.551 229.248 441.131 229.406 440.828 229.723C440.456 230.122 440.27 230.79 440.27 231.726V236.229H438.246Z" fill="#0C29FF"/>
</g>
</g>
<defs>
<filter id="filter0_d_28_1152" x="22.6029" y="78.2222" width="535.792" height="233.333" filterUnits="userSpaceOnUse" color-interpolation-filters="sRGB">
<feFlood flood-opacity="0" result="BackgroundImageFix"/>
<feColorMatrix in="SourceAlpha" type="matrix" values="0 0 0 0 0 0 0 0 0 0 0 0 0 0 0 0 0 0 127 0" result="hardAlpha"/>
<feOffset dy="8.88889"/>
<feGaussianBlur stdDeviation="13.3333"/>
<feComposite in2="hardAlpha" operator="out"/>
<feColorMatrix type="matrix" values="0 0 0 0 0.5625 0 0 0 0 0.5625 0 0 0 0 0.5625 0 0 0 0.32 0"/>
<feBlend mode="normal" in2="BackgroundImageFix" result="effect1_dropShadow_28_1152"/>
<feBlend mode="normal" in="SourceGraphic" in2="effect1_dropShadow_28_1152" result="shape"/>
</filter>
<clipPath id="clip0_28_1152">
<rect width="580" height="520" rx="8" fill="white"/>
</clipPath>
<clipPath id="clip1_28_1152">
<rect width="328" height="544" fill="white" transform="translate(126 80)"/>
</clipPath>
<clipPath id="clip2_28_1152">
<rect width="328" height="170" fill="white" transform="translate(126 306)"/>
</clipPath>
<clipPath id="clip3_28_1152">
<rect x="418" y="404" width="20" height="20" rx="10" fill="white"/>
</clipPath>
</defs>
</svg>
